# Blender 4.0.2
# www.blender.org
o Cube
o Cube.001
v -0.025000 -0.043301 3.000000
v 0.025000 -0.043301 3.000000
v 0.050000 0.000000 3.000000
v 0.025000 0.043301 3.000000
v -0.025000 0.043301 3.000000
v -0.050000 -0.000000 3.000000
v -0.025000 -0.042931 3.594348
v 0.025000 -0.042931 3.594348
v 0.050000 -0.000000 3.600000
v 0.025000 0.042931 3.605652
v -0.025000 0.042931 3.605652
v -0.050000 -0.000000 3.600000
v -0.025000 -0.091090 3.778349
v 0.025000 -0.091090 3.778349
v 0.050000 -0.053590 3.800000
v 0.025000 -0.016090 3.821651
v -0.025000 -0.016090 3.821651
v -0.050000 -0.053590 3.800000
v -0.025000 -0.221651 3.908910
v 0.025000 -0.221651 3.908910
v 0.050000 -0.200000 3.946410
v 0.025000 -0.178349 3.983910
v -0.025000 -0.178349 3.983910
v -0.050000 -0.200000 3.946410
v -0.025000 -0.405652 3.957069
v 0.025000 -0.405652 3.957069
v 0.050000 -0.400000 4.000000
v 0.025000 -0.394348 4.042931
v -0.025000 -0.394348 4.042931
v -0.050000 -0.400000 4.000000
v -0.025000 -0.594348 3.957069
v 0.025000 -0.594348 3.957069
v 0.050000 -0.600000 4.000000
v 0.025000 -0.605652 4.042931
v -0.025000 -0.605652 4.042931
v -0.050000 -0.600000 4.000000
v -0.025000 -0.778349 3.908910
v 0.025000 -0.778349 3.908910
v 0.050000 -0.800000 3.946410
v 0.025000 -0.821651 3.983910
v -0.025000 -0.821651 3.983910
v -0.050000 -0.800000 3.946410
v -0.025000 -0.908024 3.779963
v 0.025000 -0.908024 3.779963
v 0.050000 -0.946410 3.800000
v 0.025000 -0.984797 3.820037
v -0.025000 -0.984797 3.820037
v -0.050000 -0.946410 3.800000
v -0.025000 -0.957373 3.492385
v 0.025000 -0.957373 3.492385
v 0.050000 -1.000000 3.500000
v 0.025000 -1.042627 3.507615
v -0.025000 -1.042627 3.507615
v -0.050000 -1.000000 3.500000
v -0.025000 -0.043301 2.000000
v 0.025000 -0.043301 2.000000
v 0.050000 0.000000 2.000000
v 0.025000 0.043301 2.000000
v -0.025000 0.043301 2.000000
v -0.050000 -0.000000 2.000000
v -0.025000 -0.043301 1.000000
v 0.025000 -0.043301 1.000000
v 0.050000 0.000000 1.000000
v 0.025000 0.043301 1.000000
v -0.025000 0.043301 1.000000
v -0.050000 -0.000000 1.000000
v -0.025000 -0.043301 0.000000
v 0.025000 -0.043301 0.000000
v 0.050000 0.000000 0.000000
v 0.025000 0.043301 0.000000
v -0.025000 0.043301 0.000000
v -0.050000 -0.000000 0.000000
vn -0.8660 -0.5000 0.0003
vn -0.0000 -1.0000 0.0006
vn 0.8660 -0.5000 0.0003
vn 0.8660 0.5000 -0.0000
vn -0.0000 1.0000 0.0006
vn -0.8643 -0.4866 -0.1273
vn -0.0000 -0.9674 -0.2532
vn 0.8643 -0.4866 -0.1273
vn 0.8642 0.4861 0.1302
vn -0.0000 0.9646 0.2636
vn -0.8642 0.4861 0.1302
vn -0.8584 -0.3628 -0.3628
vn -0.0000 -0.7071 -0.7071
vn 0.8584 -0.3628 -0.3628
vn 0.8584 0.3628 0.3628
vn -0.0000 0.7071 0.7071
vn -0.8584 0.3628 0.3628
vn -0.8584 -0.1328 -0.4956
vn -0.0000 -0.2532 -0.9674
vn 0.8584 -0.1328 -0.4956
vn 0.8587 0.1351 0.4944
vn -0.0000 0.2636 0.9646
vn -0.8587 0.1351 0.4944
vn -0.8642 -0.0000 -0.5032
vn -0.0000 -0.0000 -1.0000
vn 0.8642 -0.0000 -0.5032
vn 0.8642 -0.0000 0.5032
vn -0.0000 -0.0000 1.0000
vn -0.8642 -0.0000 0.5032
vn -0.8643 0.1273 -0.4866
vn -0.0000 0.2532 -0.9674
vn 0.8643 0.1273 -0.4866
vn 0.8642 -0.1302 0.4861
vn -0.0000 -0.2636 0.9646
vn -0.8642 -0.1302 0.4861
vn -0.8585 0.3616 -0.3636
vn -0.0000 0.7051 -0.7091
vn 0.8585 0.3616 -0.3636
vn 0.8584 -0.3628 0.3628
vn -0.0000 -0.7087 0.7055
vn -0.8584 -0.3628 0.3628
vn -0.8555 0.5097 -0.0910
vn -0.0000 0.9856 -0.1691
vn 0.8555 0.5097 -0.0910
vn 0.8560 -0.5084 0.0941
vn -0.0000 -0.9833 0.1820
vn -0.8560 -0.5084 0.0941
vn -0.8660 0.5000 -0.0000
vn -0.8660 -0.5000 -0.0000
vn -0.0000 -1.0000 -0.0000
vn -0.0000 1.0000 -0.0000
vn 0.8660 -0.5000 -0.0000
vn -0.8642 -0.5032 -0.0000
vn 0.8642 -0.5032 -0.0000
vn 0.8642 0.5032 0.0003
vn -0.8584 -0.4956 -0.1328
vn 0.8584 -0.4956 -0.1328
vn 0.8587 0.4944 0.1351
vn -0.8587 0.4944 0.1351
vn -0.8643 -0.1273 -0.4866
vn 0.8643 -0.1273 -0.4866
vn 0.8642 0.1302 0.4861
vn -0.8642 0.1302 0.4861
vn -0.8584 0.1328 -0.4956
vn 0.8584 0.1328 -0.4956
vn 0.8587 -0.1351 0.4944
vn -0.8587 -0.1351 0.4944
vn -0.8555 0.3661 -0.3661
vn 0.8555 0.3661 -0.3661
vn 0.8557 -0.3667 0.3651
vn -0.8557 -0.3667 0.3651
vn -0.8660 0.4928 -0.0846
vn 0.8660 0.4928 -0.0846
vn 0.8660 -0.4922 0.0879
vn -0.8660 -0.4922 0.0879
vn -0.8642 0.5032 0.0003
vt 0.202218 0.527478
vt 0.162702 0.051704
vt 0.202725 0.051725
vt 0.242241 0.527521
vt 0.242748 0.051768
vt 0.282771 0.051833
vt 0.082656 0.051683
vt 0.042887 0.531981
vt 0.042633 0.051704
vt 0.122679 0.051683
vt 0.082656 0.536485
vt 0.202715 0.672763
vt 0.165246 0.510381
vt 0.202720 0.514942
vt 0.246813 0.673071
vt 0.240734 0.514062
vt 0.278269 0.507958
vt 0.083726 0.505089
vt 0.048878 0.674626
vt 0.044149 0.510703
vt 0.123380 0.673446
vt 0.125806 0.505059
vt 0.160929 0.673270
vt 0.169827 0.838719
vt 0.245231 0.828008
vt 0.288773 0.672555
vt 0.086603 0.674354
vt 0.044017 0.840344
vt 0.128379 0.849878
vt 0.206304 0.079553
vt 0.164025 0.235538
vt 0.167438 0.069798
vt 0.246386 0.235985
vt 0.245299 0.079522
vt 0.287114 0.236314
vt 0.284356 0.069831
vt 0.087197 0.235806
vt 0.045866 0.069477
vt 0.086100 0.059958
vt 0.125487 0.235512
vt 0.127369 0.060112
vt 0.206597 0.390032
vt 0.204398 0.235577
vt 0.245375 0.389753
vt 0.283690 0.394631
vt 0.085104 0.400131
vt 0.048271 0.235787
vt 0.126129 0.400383
vt 0.166942 0.395305
vt 0.125593 0.691169
vt 0.163452 0.852934
vt 0.126404 0.848531
vt 0.081340 0.691418
vt 0.088884 0.849638
vt 0.051959 0.855976
vt 0.244293 0.858085
vt 0.278713 0.689647
vt 0.283514 0.852462
vt 0.204330 0.690883
vt 0.202559 0.858166
vt 0.166795 0.691218
vt 0.119417 0.536616
vt 0.081363 0.537513
vt 0.040047 0.693570
vt 0.241072 0.689932
vt 0.283819 0.522951
vt 0.199491 0.511691
vt 0.158220 0.524154
vt 0.127632 0.520144
vt 0.165025 0.286385
vt 0.166340 0.530321
vt 0.084982 0.287050
vt 0.087612 0.520594
vt 0.044965 0.287736
vt 0.049144 0.531641
vt 0.245071 0.286169
vt 0.283777 0.530321
vt 0.245070 0.540499
vt 0.205048 0.286169
vt 0.205047 0.540499
vt 0.162449 0.531981
vt 0.122503 0.854504
vt 0.162526 0.054042
vt 0.162526 0.854504
vt 0.202549 0.054042
vt 0.202549 0.854504
vt 0.042457 0.854504
vt 0.082480 0.054042
vt 0.082480 0.854504
vt 0.242572 0.054042
vt 0.242572 0.854504
vt 0.122503 0.054042
vt 0.282596 0.054042
vt 0.282596 0.854504
vt 0.202549 0.054042
vt 0.202549 0.854504
vt 0.042457 0.854504
vt 0.082480 0.054042
vt 0.082480 0.854504
vt 0.242572 0.054042
vt 0.242572 0.854504
vt 0.162526 0.054042
vt 0.122503 0.054042
vt 0.282595 0.054042
vt 0.282595 0.854504
vt 0.282000 0.532109
vt 0.122680 0.536484
vt 0.206882 0.828502
vt 0.282186 0.837470
vt 0.085574 0.850336
vt 0.045605 0.395001
vt 0.042271 0.526569
vt 0.242508 0.511369
vt 0.125003 0.286599
vt 0.285093 0.286385
vt 0.042457 0.054042
vt 0.042457 0.054042
s 0
f 7/1/1 6/2/1 1/3/1
f 8/4/2 1/3/2 2/5/2
f 3/6/3 8/4/3 2/5/3
f 4/7/4 9/8/4 3/9/4
f 5/10/5 10/11/5 4/7/5
f 13/12/6 12/13/6 7/14/6
f 14/15/7 7/14/7 8/16/7
f 9/17/8 14/15/8 8/16/8
f 10/18/9 15/19/9 9/20/9
f 17/21/10 10/18/10 11/22/10
f 18/23/11 11/22/11 12/13/11
f 13/12/12 24/24/12 18/23/12
f 20/25/13 13/12/13 14/15/13
f 15/26/14 20/25/14 14/15/14
f 16/27/15 21/28/15 15/19/15
f 23/29/16 16/27/16 17/21/16
f 24/24/17 17/21/17 18/23/17
f 19/30/18 30/31/18 24/32/18
f 26/33/19 19/30/19 20/34/19
f 27/35/20 20/34/20 21/36/20
f 28/37/21 21/38/21 22/39/21
f 29/40/22 22/39/22 23/41/22
f 24/32/23 29/40/23 23/41/23
f 31/42/24 30/31/24 25/43/24
f 32/44/25 25/43/25 26/33/25
f 33/45/26 26/33/26 27/35/26
f 34/46/27 27/47/27 28/37/27
f 35/48/28 28/37/28 29/40/28
f 36/49/29 29/40/29 30/31/29
f 37/50/30 36/51/30 31/52/30
f 38/53/31 31/52/31 32/54/31
f 33/55/32 38/53/32 32/54/32
f 34/56/33 39/57/33 33/58/33
f 41/59/34 34/56/34 35/60/34
f 42/61/35 35/60/35 36/51/35
f 43/62/36 42/61/36 37/50/36
f 44/63/37 37/50/37 38/53/37
f 39/64/38 44/63/38 38/53/38
f 40/65/39 45/66/39 39/57/39
f 47/67/40 40/65/40 41/59/40
f 48/68/41 41/59/41 42/61/41
f 43/69/42 54/70/42 48/71/42
f 50/72/43 43/69/43 44/73/43
f 51/74/44 44/73/44 45/75/44
f 52/76/45 45/77/45 46/78/45
f 53/79/46 46/78/46 47/80/46
f 48/71/47 53/79/47 47/80/47
f 12/81/48 5/10/48 6/2/48
f 5/82/48 60/83/48 6/84/48
f 6/84/49 55/85/49 1/86/49
f 3/87/4 58/88/4 4/89/4
f 1/86/50 56/90/50 2/91/50
f 4/89/51 59/92/51 5/82/51
f 2/91/52 57/93/52 3/94/52
f 59/82/48 66/83/48 60/84/48
f 58/89/51 65/92/51 59/82/51
f 56/91/52 63/93/52 57/94/52
f 60/84/49 61/85/49 55/86/49
f 57/87/4 64/88/4 58/89/4
f 55/86/50 62/90/50 56/91/50
f 66/84/49 67/95/49 61/96/49
f 63/97/4 70/98/4 64/99/4
f 61/96/50 68/100/50 62/101/50
f 65/82/48 72/102/48 66/84/48
f 64/99/51 71/103/51 65/82/51
f 62/101/52 69/104/52 63/105/52
f 7/1/53 12/81/53 6/2/53
f 8/4/2 7/1/2 1/3/2
f 3/6/54 9/106/54 8/4/54
f 4/7/55 10/11/55 9/8/55
f 5/10/5 11/107/5 10/11/5
f 13/12/56 18/23/56 12/13/56
f 14/15/7 13/12/7 7/14/7
f 9/17/57 15/26/57 14/15/57
f 10/18/58 16/27/58 15/19/58
f 17/21/10 16/27/10 10/18/10
f 18/23/59 17/21/59 11/22/59
f 13/12/12 19/108/12 24/24/12
f 20/25/13 19/108/13 13/12/13
f 15/26/14 21/109/14 20/25/14
f 16/27/15 22/110/15 21/28/15
f 23/29/16 22/110/16 16/27/16
f 24/24/17 23/29/17 17/21/17
f 19/30/60 25/43/60 30/31/60
f 26/33/19 25/43/19 19/30/19
f 27/35/61 26/33/61 20/34/61
f 28/37/62 27/47/62 21/38/62
f 29/40/22 28/37/22 22/39/22
f 24/32/63 30/31/63 29/40/63
f 31/42/24 36/49/24 30/31/24
f 32/44/25 31/42/25 25/43/25
f 33/45/26 32/44/26 26/33/26
f 34/46/27 33/111/27 27/47/27
f 35/48/28 34/46/28 28/37/28
f 36/49/29 35/48/29 29/40/29
f 37/50/64 42/61/64 36/51/64
f 38/53/31 37/50/31 31/52/31
f 33/55/65 39/64/65 38/53/65
f 34/56/66 40/65/66 39/57/66
f 41/59/34 40/65/34 34/56/34
f 42/61/67 41/59/67 35/60/67
f 43/62/68 48/68/68 42/61/68
f 44/63/37 43/62/37 37/50/37
f 39/64/69 45/112/69 44/63/69
f 40/65/70 46/113/70 45/66/70
f 47/67/40 46/113/40 40/65/40
f 48/68/71 47/67/71 41/59/71
f 43/69/72 49/114/72 54/70/72
f 50/72/43 49/114/43 43/69/43
f 51/74/73 50/72/73 44/73/73
f 52/76/74 51/115/74 45/77/74
f 53/79/46 52/76/46 46/78/46
f 48/71/75 54/70/75 53/79/75
f 12/81/76 11/107/76 5/10/76
f 5/82/48 59/92/48 60/83/48
f 6/84/49 60/83/49 55/85/49
f 3/87/4 57/116/4 58/88/4
f 1/86/50 55/85/50 56/90/50
f 4/89/51 58/88/51 59/92/51
f 2/91/52 56/90/52 57/93/52
f 59/82/48 65/92/48 66/83/48
f 58/89/51 64/88/51 65/92/51
f 56/91/52 62/90/52 63/93/52
f 60/84/49 66/83/49 61/85/49
f 57/87/4 63/116/4 64/88/4
f 55/86/50 61/85/50 62/90/50
f 66/84/49 72/102/49 67/95/49
f 63/97/4 69/117/4 70/98/4
f 61/96/50 67/95/50 68/100/50
f 65/82/48 71/103/48 72/102/48
f 64/99/51 70/98/51 71/103/51
f 62/101/52 68/100/52 69/104/52
o Cone
v 0.000000 -0.615000 3.343750
v 0.187500 -0.665241 3.343750
v 0.324760 -0.802500 3.343750
v 0.375000 -0.990000 3.343750
v 0.324760 -1.177500 3.343750
v 0.187500 -1.314759 3.343750
v 0.000000 -1.365000 3.343750
v -0.187500 -1.314759 3.343750
v -0.324760 -1.177500 3.343750
v -0.375000 -0.990000 3.343750
v -0.324760 -0.802500 3.343750
v -0.187500 -0.665241 3.343750
v 0.000000 -0.990000 3.656250
vn 0.1691 0.6310 0.7572
vn 0.4619 0.4619 0.7572
vn 0.6310 0.1691 0.7572
vn 0.6310 -0.1691 0.7572
vn 0.4619 -0.4619 0.7572
vn 0.1691 -0.6310 0.7572
vn -0.1691 -0.6310 0.7572
vn -0.4619 -0.4619 0.7572
vn -0.6310 -0.1691 0.7572
vn -0.6310 0.1691 0.7572
vn -0.0000 -0.0000 -1.0000
vn -0.4619 0.4619 0.7572
vn -0.1691 0.6310 0.7572
vt 0.987466 0.341413
vt 0.720896 0.269986
vt 0.987466 0.198559
vt 0.916039 0.074843
vt 0.792323 0.003416
vt 0.649469 0.003416
vt 0.525753 0.074843
vt 0.454326 0.198559
vt 0.454326 0.341413
vt 0.525753 0.465129
vt 0.649469 0.536556
vt 0.792323 0.536556
vt 0.500292 0.523513
vt 0.794401 0.817621
vt 0.392641 0.925272
vt 0.916039 0.465129
vt 0.330489 0.817621
vt 0.330489 0.693316
vt 0.392641 0.585665
vt 0.624597 0.523513
vt 0.732248 0.585665
vt 0.794401 0.693316
vt 0.732248 0.925272
vt 0.624597 0.987425
vt 0.500292 0.987425
s 0
f 73/118/77 85/119/77 74/120/77
f 74/120/78 85/119/78 75/121/78
f 75/121/79 85/119/79 76/122/79
f 76/122/80 85/119/80 77/123/80
f 77/123/81 85/119/81 78/124/81
f 78/124/82 85/119/82 79/125/82
f 79/125/83 85/119/83 80/126/83
f 80/126/84 85/119/84 81/127/84
f 81/127/85 85/119/85 82/128/85
f 82/128/86 85/119/86 83/129/86
f 76/130/87 80/131/87 84/132/87
f 83/129/88 85/119/88 84/133/88
f 84/133/89 85/119/89 73/118/89
f 84/132/87 73/134/87 74/135/87
f 74/135/87 75/136/87 76/130/87
f 76/130/87 77/137/87 78/138/87
f 78/138/87 79/139/87 80/131/87
f 80/131/87 81/140/87 82/141/87
f 82/141/87 83/142/87 84/132/87
f 84/132/87 74/135/87 76/130/87
f 76/130/87 78/138/87 80/131/87
f 80/131/87 82/141/87 84/132/87
