# Blender 4.0.2
# www.blender.org
mtllib rock.mtl
o rock
v 0.000000 -0.340158 0.000000
v 0.434160 -0.008488 0.315432
v -0.165832 -0.008488 0.510384
v 0.434160 -0.008488 0.315432
v 0.000000 -0.340158 0.000000
v 0.434160 -0.008486 -0.315432
v 0.000000 -0.340158 0.000000
v -0.165832 -0.008488 0.510384
v -0.536656 -0.008488 0.000000
v 0.000000 -0.340158 0.000000
v -0.536656 -0.008488 0.000000
v -0.165832 -0.008486 -0.510384
v 0.000000 -0.340158 0.000000
v -0.165832 -0.008486 -0.510384
v 0.434160 -0.008486 -0.315432
v 0.434160 -0.008488 0.315432
v 0.434160 -0.008486 -0.315432
v 0.536656 0.528172 -0.000000
v -0.165832 -0.008488 0.510384
v 0.434160 -0.008488 0.315432
v 0.165832 0.528172 0.510384
v -0.536656 -0.008488 0.000000
v -0.165832 -0.008488 0.510384
v -0.434160 0.528172 0.315432
v -0.165832 -0.008486 -0.510384
v -0.536656 -0.008488 0.000000
v -0.434160 0.528172 -0.315432
v 0.434160 -0.008486 -0.315432
v -0.165832 -0.008486 -0.510384
v 0.165832 0.528172 -0.510384
v 0.434160 -0.008488 0.315432
v 0.536656 0.528172 -0.000000
v 0.165832 0.528172 0.510384
v -0.165832 -0.008488 0.510384
v 0.165832 0.528172 0.510384
v -0.434160 0.528172 0.315432
v -0.536656 -0.008488 0.000000
v -0.434160 0.528172 0.315432
v -0.434160 0.528172 -0.315432
v -0.165832 -0.008486 -0.510384
v -0.434160 0.528172 -0.315432
v 0.165832 0.528172 -0.510384
v 0.434160 -0.008486 -0.315432
v 0.165832 0.528172 -0.510384
v 0.536656 0.528172 -0.000000
v 0.165832 0.528172 0.510384
v 0.536656 0.528172 -0.000000
v 0.000000 0.859842 -0.000000
v -0.434160 0.528172 0.315432
v 0.165832 0.528172 0.510384
v 0.000000 0.859842 -0.000000
v -0.434160 0.528172 -0.315432
v -0.434160 0.528172 0.315432
v 0.000000 0.859842 -0.000000
v 0.165832 0.528172 -0.510384
v -0.434160 0.528172 -0.315432
v 0.000000 0.859842 -0.000000
v 0.536656 0.528172 -0.000000
v 0.165832 0.528172 -0.510384
v 0.000000 0.859842 -0.000000
vn 0.1876 -0.7947 0.5774
vn 0.6071 -0.7947 -0.0000
vn -0.4911 -0.7947 0.3568
vn -0.4911 -0.7947 -0.3568
vn 0.1876 -0.7947 -0.5774
vn 0.9822 -0.1876 -0.0000
vn 0.3035 -0.1876 0.9342
vn -0.7946 -0.1876 0.5774
vn -0.7946 -0.1876 -0.5774
vn 0.3035 -0.1876 -0.9342
vn 0.7946 0.1876 0.5774
vn -0.3035 0.1876 0.9342
vn -0.9822 0.1876 -0.0000
vn -0.3035 0.1876 -0.9342
vn 0.7946 0.1876 -0.5774
vn 0.4911 0.7947 0.3568
vn -0.1876 0.7947 0.5774
vn -0.6071 0.7947 -0.0000
vn -0.1876 0.7947 -0.5774
vn 0.4911 0.7947 -0.3568
vt 0.227650 0.572776
vt 0.438753 0.746897
vt 0.438753 0.514222
vt 0.192210 0.856301
vt 0.070479 0.051953
vt 0.041202 0.283087
vt 0.270795 0.141325
vt 0.300072 0.514222
vt 0.500389 0.426391
vt 0.270795 0.283087
vt 0.041202 0.689885
vt 0.380199 0.971869
vt 0.759260 0.514222
vt 0.961117 0.426391
vt 0.729983 0.283087
vt 0.270795 0.426391
vt 0.500389 0.141325
vt 0.729983 0.141325
vt 0.529666 0.051953
vt 0.500389 0.283087
vt 0.961117 0.141325
vt 0.070479 0.514222
vt 0.777751 0.971869
vt 0.836305 0.746897
vt 0.589761 0.856301
vt 0.300072 0.051953
vt 0.729983 0.426391
vt 0.759260 0.051953
vt 0.836305 0.514222
vt 0.626742 0.572776
vt 0.438753 0.689885
vt 0.529666 0.514222
s 0
f 1/1/1 2/2/1 3/3/1
f 4/2/2 5/1/2 6/4/2
f 7/5/3 8/6/3 9/7/3
f 10/8/4 11/9/4 12/10/4
f 13/1/5 14/11/5 15/4/5
f 16/2/6 17/4/6 18/12/6
f 19/13/7 20/14/7 21/15/7
f 22/7/8 23/6/8 24/16/8
f 25/10/9 26/9/9 27/17/9
f 28/18/10 29/19/10 30/20/10
f 31/14/11 32/21/11 33/15/11
f 34/6/12 35/22/12 36/16/12
f 37/23/13 38/24/13 39/25/13
f 40/10/14 41/17/14 42/26/14
f 43/18/15 44/20/15 45/27/15
f 46/15/16 47/21/16 48/28/16
f 49/24/17 50/29/17 51/30/17
f 52/25/18 53/24/18 54/30/18
f 55/31/19 56/25/19 57/30/19
f 58/27/20 59/20/20 60/32/20
