# Blender 4.0.2
# www.blender.org
o Cube.002
o Cube.001
v -0.125000 0.125000 0.000000
v -0.125000 -0.125000 0.000000
v 0.125000 0.125000 0.000000
v 0.125000 -0.125000 0.000000
v -0.125000 0.125000 2.000000
v -0.125000 -0.125000 2.000000
v 0.125000 0.125000 2.000000
v 0.125000 -0.125000 2.000000
v 0.525000 0.125000 0.000000
v 0.525000 -0.125000 0.000000
v 0.525000 -0.125000 2.000000
v 0.525000 0.125000 2.000000
v -0.125000 -0.525000 0.000000
v -0.125000 -0.525000 2.000000
v 0.125000 -0.525000 2.000000
v 0.125000 -0.525000 0.000000
vn -0.0000 1.0000 -0.0000
vn -0.0000 -1.0000 -0.0000
vn -0.0000 -0.0000 1.0000
vn 1.0000 -0.0000 -0.0000
vn -1.0000 -0.0000 -0.0000
vt 0.791667 0.500000
vt 0.625000 0.750000
vt 0.625000 0.500000
vt 0.375000 0.750000
vt 0.208333 0.750000
vt 0.625000 0.000000
vt 0.375000 0.250000
vt 0.375000 0.000000
vt 0.625000 0.333333
vt 0.375000 0.500000
vt 0.375000 0.333333
vt 0.791667 0.750000
vt 0.625000 0.250000
vt 0.375000 0.916667
vt 0.625000 0.916667
vt 0.208333 0.500000
s 0
f 5/1/1 3/2/1 1/3/1
f 4/4/2 11/5/2 8/5/2
f 7/6/3 6/7/3 8/8/3
f 8/5/4 16/4/4 4/4/4
f 5/9/5 2/10/5 6/11/5
f 5/1/1 7/12/1 3/2/1
f 8/8/3 12/6/3 7/6/3
f 7/6/3 5/13/3 6/7/3
f 2/10/5 14/11/5 6/11/5
f 5/9/5 1/3/5 2/10/5
f 9/2/4 11/14/4 10/4/4
f 9/2/4 12/15/4 11/14/4
f 7/12/1 9/2/1 3/2/1
f 13/10/2 15/5/2 14/16/2
f 13/10/2 16/4/2 15/5/2
f 6/7/3 15/8/3 8/8/3
f 4/4/2 10/4/2 11/5/2
f 8/5/4 15/5/4 16/4/4
f 8/8/3 11/8/3 12/6/3
f 2/10/5 13/10/5 14/11/5
f 7/12/1 12/12/1 9/2/1
f 6/7/3 14/7/3 15/8/3
