# Blender 4.0.2
# www.blender.org
o Sphere
v 0.014508 0.506337 -0.029045
v 0.027267 0.412756 -0.054355
v 0.036736 0.269391 -0.073109
v 0.041775 0.093534 -0.083045
v 0.041775 -0.093605 -0.082964
v 0.036736 -0.269454 -0.072877
v 0.027267 -0.412803 -0.053999
v 0.014508 -0.506362 -0.028609
v 0.022228 0.506346 -0.006753
v 0.041775 0.412774 -0.012459
v 0.056284 0.269416 -0.016662
v 0.064003 0.093561 -0.018856
v 0.064003 -0.093578 -0.018775
v 0.056284 -0.269430 -0.016430
v 0.041775 -0.412785 -0.012103
v 0.022228 -0.506352 -0.006316
v 0.019547 0.506357 0.018597
v 0.036736 0.412795 0.035184
v 0.049495 0.269443 0.047527
v 0.056284 0.093593 0.054137
v 0.056284 -0.093546 0.054218
v 0.049495 -0.269402 0.047759
v 0.036736 -0.412764 0.035540
v 0.019547 -0.506341 0.019034
v 0.007720 0.506364 0.035144
v 0.014508 0.412808 0.066280
v 0.019547 0.269461 0.089423
v 0.022228 0.093613 0.101780
v 0.022228 -0.093526 0.101860
v 0.019547 -0.269384 0.089655
v 0.014508 -0.412751 0.066636
v 0.007720 -0.506334 0.035580
v -0.007720 0.506364 0.035144
v -0.014508 0.412808 0.066280
v -0.019547 0.269461 0.089423
v -0.022228 0.093613 0.101780
v -0.022228 -0.093526 0.101861
v -0.019547 -0.269384 0.089655
v -0.014508 -0.412751 0.066636
v -0.007720 -0.506334 0.035580
v -0.019547 0.506357 0.018597
v -0.036736 0.412795 0.035184
v -0.049495 0.269443 0.047527
v -0.056284 0.093593 0.054137
v -0.056284 -0.093546 0.054218
v -0.049495 -0.269402 0.047759
v -0.036736 -0.412764 0.035540
v -0.019547 -0.506341 0.019034
v 0.000000 -0.538846 0.000232
v 0.000000 0.538846 -0.000232
v -0.022228 0.506346 -0.006753
v -0.041775 0.412774 -0.012459
v -0.056284 0.269416 -0.016662
v -0.064003 0.093561 -0.018856
v -0.064003 -0.093578 -0.018775
v -0.056284 -0.269430 -0.016430
v -0.041775 -0.412785 -0.012103
v -0.022228 -0.506352 -0.006316
v -0.014508 0.506337 -0.029045
v -0.027267 0.412756 -0.054355
v -0.036736 0.269391 -0.073109
v -0.041775 0.093534 -0.083045
v -0.041775 -0.093605 -0.082964
v -0.036736 -0.269454 -0.072877
v -0.027267 -0.412803 -0.053999
v -0.014508 -0.506362 -0.028609
v -0.000000 0.506333 -0.037849
v -0.000000 0.412749 -0.070901
v -0.000000 0.269382 -0.095402
v -0.000000 0.093523 -0.108395
v -0.000000 -0.093616 -0.108314
v -0.000000 -0.269464 -0.095169
v -0.000000 -0.412810 -0.070546
v -0.000000 -0.506365 -0.037413
vn 0.3687 -0.7038 -0.6072
vn 0.5177 -0.0638 -0.8532
vn 0.5133 0.1446 -0.8459
vn 0.5133 -0.1453 -0.8458
vn 0.5177 0.0630 -0.8532
vn 0.3687 0.7033 -0.6078
vn 0.4966 -0.2898 -0.8182
vn 0.5188 -0.0004 -0.8549
vn 0.4966 0.2891 -0.8184
vn 0.9397 -0.1049 -0.3254
vn 0.9440 0.0455 -0.3269
vn 0.7697 0.5800 -0.2668
vn 0.9234 -0.2127 -0.3197
vn 0.9449 -0.0001 -0.3272
vn 0.9234 0.2124 -0.3198
vn 0.7697 -0.5802 -0.2663
vn 0.9440 -0.0458 -0.3269
vn 0.9397 0.1046 -0.3255
vn 0.9945 -0.0000 0.1052
vn 0.9749 0.1974 0.1030
vn 0.8303 -0.5503 0.0881
vn 0.9936 -0.0422 0.1051
vn 0.9898 0.0971 0.1046
vn 0.9898 -0.0970 0.1047
vn 0.9936 0.0423 0.1051
vn 0.8303 0.5503 0.0876
vn 0.9749 -0.1973 0.1032
vn 0.8075 0.1216 0.5772
vn 0.8075 -0.1211 0.5773
vn 0.8124 0.0532 0.5807
vn 0.6272 0.6371 0.4481
vn 0.7888 -0.2444 0.5640
vn 0.8135 0.0003 0.5815
vn 0.7888 0.2449 0.5637
vn 0.6272 -0.6367 0.4486
vn 0.8124 -0.0527 0.5807
vn -0.0000 0.7366 0.6763
vn -0.0000 -0.3150 0.9491
vn -0.0000 0.0004 1.0000
vn -0.0000 0.3158 0.9488
vn -0.0000 -0.7360 0.6770
vn -0.0000 -0.0692 0.9976
vn -0.0000 0.1594 0.9872
vn -0.0000 -0.1585 0.9874
vn -0.0000 0.0701 0.9975
vn -0.6272 -0.6367 0.4486
vn -0.8124 -0.0527 0.5807
vn -0.8075 0.1216 0.5772
vn -0.8075 -0.1211 0.5773
vn -0.8124 0.0532 0.5807
vn -0.6272 0.6371 0.4481
vn -0.7888 -0.2444 0.5640
vn -0.8135 0.0003 0.5815
vn -0.7888 0.2449 0.5637
vn -0.9898 -0.0970 0.1047
vn -0.9936 0.0423 0.1051
vn -0.8303 0.5503 0.0876
vn -0.9749 -0.1973 0.1032
vn -0.9945 -0.0000 0.1052
vn -0.9749 0.1974 0.1030
vn -0.8303 -0.5503 0.0881
vn -0.9936 -0.0422 0.1051
vn -0.9898 0.0971 0.1046
vn -0.9449 -0.0001 -0.3272
vn -0.9234 0.2124 -0.3198
vn -0.7697 -0.5802 -0.2663
vn -0.9440 -0.0458 -0.3269
vn -0.9397 0.1046 -0.3255
vn -0.9397 -0.1049 -0.3254
vn -0.9440 0.0455 -0.3269
vn -0.7697 0.5800 -0.2668
vn -0.9234 -0.2127 -0.3197
vn -0.5133 0.1446 -0.8459
vn -0.5133 -0.1453 -0.8458
vn -0.5177 0.0630 -0.8532
vn -0.3687 0.7033 -0.6078
vn -0.4966 -0.2898 -0.8182
vn -0.5188 -0.0004 -0.8549
vn -0.4966 0.2891 -0.8184
vn -0.3687 -0.7038 -0.6072
vn -0.5177 -0.0638 -0.8532
s 0
f 49//1 74//1 8//1
f 71//2 6//2 72//2
f 68//3 3//3 69//3
f 72//4 7//4 73//4
f 69//5 4//5 70//5
f 67//6 50//6 1//6
f 73//7 8//7 74//7
f 70//8 5//8 71//8
f 68//9 1//9 2//9
f 6//10 15//10 7//10
f 3//11 12//11 4//11
f 1//12 50//12 9//12
f 7//13 16//13 8//13
f 4//14 13//14 5//14
f 1//15 10//15 2//15
f 49//16 8//16 16//16
f 5//17 14//17 6//17
f 3//18 10//18 11//18
f 12//19 21//19 13//19
f 9//20 18//20 10//20
f 49//21 16//21 24//21
f 13//22 22//22 14//22
f 10//23 19//23 11//23
f 14//24 23//24 15//24
f 11//25 20//25 12//25
f 9//26 50//26 17//26
f 15//27 24//27 16//27
f 18//28 27//28 19//28
f 23//29 30//29 31//29
f 19//30 28//30 20//30
f 17//31 50//31 25//31
f 23//32 32//32 24//32
f 20//33 29//33 21//33
f 17//34 26//34 18//34
f 49//35 24//35 32//35
f 21//36 30//36 22//36
f 25//37 50//37 33//37
f 31//38 40//38 32//38
f 28//39 37//39 29//39
f 25//40 34//40 26//40
f 49//41 32//41 40//41
f 29//42 38//42 30//42
f 27//43 34//43 35//43
f 30//44 39//44 31//44
f 27//45 36//45 28//45
f 49//46 40//46 48//46
f 38//47 45//47 46//47
f 34//48 43//48 35//48
f 38//49 47//49 39//49
f 35//50 44//50 36//50
f 33//51 50//51 41//51
f 40//52 47//52 48//52
f 36//53 45//53 37//53
f 33//54 42//54 34//54
f 47//55 56//55 57//55
f 43//56 54//56 44//56
f 41//57 50//57 51//57
f 47//58 58//58 48//58
f 44//59 55//59 45//59
f 41//60 52//60 42//60
f 49//61 48//61 58//61
f 46//62 55//62 56//62
f 42//63 53//63 43//63
f 54//64 63//64 55//64
f 51//65 60//65 52//65
f 49//66 58//66 66//66
f 56//67 63//67 64//67
f 53//68 60//68 61//68
f 56//69 65//69 57//69
f 53//70 62//70 54//70
f 51//71 50//71 59//71
f 58//72 65//72 66//72
f 61//73 68//73 69//73
f 64//74 73//74 65//74
f 61//75 70//75 62//75
f 59//76 50//76 67//76
f 65//77 74//77 66//77
f 62//78 71//78 63//78
f 59//79 68//79 60//79
f 49//80 66//80 74//80
f 64//81 71//81 72//81
f 71//2 5//2 6//2
f 68//3 2//3 3//3
f 72//4 6//4 7//4
f 69//5 3//5 4//5
f 73//7 7//7 8//7
f 70//8 4//8 5//8
f 68//9 67//9 1//9
f 6//10 14//10 15//10
f 3//11 11//11 12//11
f 7//13 15//13 16//13
f 4//14 12//14 13//14
f 1//15 9//15 10//15
f 5//17 13//17 14//17
f 3//18 2//18 10//18
f 12//19 20//19 21//19
f 9//20 17//20 18//20
f 13//22 21//22 22//22
f 10//23 18//23 19//23
f 14//24 22//24 23//24
f 11//25 19//25 20//25
f 15//27 23//27 24//27
f 18//28 26//28 27//28
f 23//29 22//29 30//29
f 19//30 27//30 28//30
f 23//32 31//32 32//32
f 20//33 28//33 29//33
f 17//34 25//34 26//34
f 21//36 29//36 30//36
f 31//38 39//38 40//38
f 28//39 36//39 37//39
f 25//40 33//40 34//40
f 29//42 37//42 38//42
f 27//43 26//43 34//43
f 30//44 38//44 39//44
f 27//45 35//45 36//45
f 38//47 37//47 45//47
f 34//48 42//48 43//48
f 38//49 46//49 47//49
f 35//50 43//50 44//50
f 40//52 39//52 47//52
f 36//53 44//53 45//53
f 33//54 41//54 42//54
f 47//55 46//55 56//55
f 43//56 53//56 54//56
f 47//58 57//58 58//58
f 44//59 54//59 55//59
f 41//60 51//60 52//60
f 46//62 45//62 55//62
f 42//63 52//63 53//63
f 54//64 62//64 63//64
f 51//65 59//65 60//65
f 56//67 55//67 63//67
f 53//68 52//68 60//68
f 56//69 64//69 65//69
f 53//70 61//70 62//70
f 58//72 57//72 65//72
f 61//73 60//73 68//73
f 64//74 72//74 73//74
f 61//75 69//75 70//75
f 65//77 73//77 74//77
f 62//78 70//78 71//78
f 59//79 67//79 68//79
f 64//81 63//81 71//81
